{
    "accessors": [
        {
            "bufferView": 3,
            "byteOffset": 0,
            "componentType": 5121,
            "count": 242,
            "max": [
                0,
                0,
                0,
                0
            ],
            "min": [
                0,
                0,
                0,
                0
            ],
            "name": "accessor_buffer_Plane.001_skin_0",
            "type": "VEC4"
        },
        {
            "bufferView": 5,
            "byteOffset": 0,
            "componentType": 5126,
            "count": 1946,
            "max": [
                0.999755859375,
                0.999755859375,
                1.0
            ],
            "min": [
                -0.999755859375,
                -0.999755859375,
                -1.0
            ],
            "name": "accessor_buffer_Cube.002_NORMAL_0",
            "type": "VEC3"
        },
        {
            "bufferView": 6,
            "byteOffset": 0,
            "componentType": 5123,
            "count": 2592,
            "max": [
                1945
            ],
            "min": [
                3
            ],
            "name": "accessor_buffer_Cube.002_0",
            "type": "SCALAR"
        },
        {
            "bufferView": 10,
            "byteOffset": 0,
            "componentType": 5126,
            "count": 9,
            "max": [
                0.0,
                0.0,
                0.0
            ],
            "min": [
                0.0,
                0.0,
                0.0
            ],
            "name": "accessor_buffer_Bone_ArmatureAction_0",
            "type": "VEC3"
        },
        {
            "bufferView": 3,
            "byteOffset": 16,
            "componentType": 5126,
            "count": 242,
            "max": [
                1.000000238418579,
                0.0,
                0.0,
                0.0
            ],
            "min": [
                0.9999998807907104,
                0.0,
                0.0,
                0.0
            ],
            "name": "accessor_buffer_Plane.001_skin_1",
            "type": "VEC4"
        },
        {
            "bufferView": 7,
            "byteOffset": 0,
            "componentType": 5123,
            "count": 6264,
            "max": [
                1944
            ],
            "min": [
                0
            ],
            "name": "accessor_buffer_Cube.002_1",
            "type": "SCALAR"
        },
        {
            "bufferView": 9,
            "byteOffset": 0,
            "componentType": 5126,
            "count": 9,
            "max": [
                0.3333333333333333
            ],
            "min": [
                0
            ],
            "name": "accessor_buffer_ArmatureAction_time_0",
            "type": "SCALAR"
        },
        {
            "bufferView": 8,
            "byteOffset": 0,
            "componentType": 5123,
            "count": 2808,
            "max": [
                1940
            ],
            "min": [
                6
            ],
            "name": "accessor_buffer_Cube.002_2",
            "type": "SCALAR"
        },
        {
            "bufferView": 1,
            "byteOffset": 0,
            "componentType": 5126,
            "count": 242,
            "max": [
                0.99993896484375,
                0.999664306640625,
                0.999969482421875
            ],
            "min": [
                -0.999053955078125,
                -0.999969482421875,
                -0.999969482421875
            ],
            "name": "accessor_buffer_Plane.001_NORMAL_0",
            "type": "VEC3"
        },
        {
            "bufferView": 2,
            "byteOffset": 0,
            "componentType": 5123,
            "count": 1440,
            "max": [
                241
            ],
            "min": [
                0
            ],
            "name": "accessor_buffer_Plane.001_0",
            "type": "SCALAR"
        },
        {
            "bufferView": 0,
            "byteOffset": 0,
            "componentType": 5126,
            "count": 242,
            "max": [
                2.0459558963775635,
                0.9677736759185791,
                0.05760246515274048
            ],
            "min": [
                0.0861264318227768,
                -0.057560116052627563,
                0.0014349780976772308
            ],
            "name": "accessor_buffer_Plane.001_POSITION_0",
            "type": "VEC3"
        },
        {
            "bufferView": 13,
            "byteOffset": 0,
            "componentType": 5126,
            "count": 1,
            "max": [
                0.22348524630069733,
                0.4777393937110901,
                -0.0008202304015867412,
                0.0,
                -0.47526267170906067,
                0.2222338616847992,
                -0.054025862365961075,
                0.0,
                -0.048590436577796936,
                0.0236312597990036,
                0.524653971195221,
                0.0,
                -0.030096039175987244,
                -0.033645521849393845,
                0.016559481620788574,
                1.0
            ],
            "min": [
                0.22348524630069733,
                0.4777393937110901,
                -0.0008202304015867412,
                0.0,
                -0.47526267170906067,
                0.2222338616847992,
                -0.054025862365961075,
                0.0,
                -0.048590436577796936,
                0.0236312597990036,
                0.524653971195221,
                0.0,
                -0.030096039175987244,
                -0.033645521849393845,
                0.016559481620788574,
                1.0
            ],
            "name": "accessor_buffer_IBM_Plane_skin_0",
            "type": "MAT4"
        },
        {
            "bufferView": 4,
            "byteOffset": 0,
            "componentType": 5126,
            "count": 1946,
            "max": [
                0.2637231647968292,
                0.2635590434074402,
                0.43674805760383606
            ],
            "min": [
                -0.26345667243003845,
                -0.2635590434074402,
                -0.8696931004524231
            ],
            "name": "accessor_buffer_Cube.002_POSITION_0",
            "type": "VEC3"
        },
        {
            "bufferView": 11,
            "byteOffset": 0,
            "componentType": 5126,
            "count": 9,
            "max": [
                0.854178786277771,
                0.0006032442324794829,
                0.0064552053809165955,
                0.7102087736129761
            ],
            "min": [
                0.7039613127708435,
                -0.10386744141578674,
                -0.056882236152887344,
                0.5063148736953735
            ],
            "name": "accessor_buffer_Bone_ArmatureAction_1",
            "type": "VEC4"
        },
        {
            "bufferView": 12,
            "byteOffset": 0,
            "componentType": 5126,
            "count": 9,
            "max": [
                1.0,
                1.0,
                1.0
            ],
            "min": [
                1.0,
                0.9999999403953552,
                0.9999999403953552
            ],
            "name": "accessor_buffer_Bone_ArmatureAction_2",
            "type": "VEC3"
        }
    ],
    "animations": [
        {
            "channels": [
                {
                    "sampler": 0,
                    "target": {
                        "node": 6,
                        "path": "translation"
                    }
                },
                {
                    "sampler": 1,
                    "target": {
                        "node": 6,
                        "path": "rotation"
                    }
                },
                {
                    "sampler": 2,
                    "target": {
                        "node": 6,
                        "path": "scale"
                    }
                }
            ],
            "name": "ArmatureAction",
            "samplers": [
                {
                    "input": 6,
                    "interpolation": "LINEAR",
                    "output": 3
                },
                {
                    "input": 6,
                    "interpolation": "LINEAR",
                    "output": 13
                },
                {
                    "input": 6,
                    "interpolation": "LINEAR",
                    "output": 14
                }
            ]
        }
    ],
    "asset": {
        "version": "2.0"
    },
    "bufferViews": [
        {
            "buffer": 0,
            "byteLength": 2904,
            "byteOffset": 0,
            "byteStride": 12,
            "name": "bufferView_buffer_Plane.001_POSITION_0",
            "target": 34962
        },
        {
            "buffer": 0,
            "byteLength": 2904,
            "byteOffset": 2904,
            "byteStride": 12,
            "name": "bufferView_buffer_Plane.001_NORMAL_0",
            "target": 34962
        },
        {
            "buffer": 0,
            "byteLength": 2884,
            "byteOffset": 5808,
            "name": "bufferView_buffer_Plane.001_0",
            "target": 34963
        },
        {
            "buffer": 0,
            "byteLength": 7744,
            "byteOffset": 8692,
            "byteStride": 32,
            "name": "bufferView_buffer_Plane.001_skin_0",
            "target": 34962
        },
        {
            "buffer": 0,
            "byteLength": 23352,
            "byteOffset": 16436,
            "byteStride": 12,
            "name": "bufferView_buffer_Cube.002_POSITION_0",
            "target": 34962
        },
        {
            "buffer": 0,
            "byteLength": 23352,
            "byteOffset": 39788,
            "byteStride": 12,
            "name": "bufferView_buffer_Cube.002_NORMAL_0",
            "target": 34962
        },
        {
            "buffer": 0,
            "byteLength": 5188,
            "byteOffset": 63140,
            "name": "bufferView_buffer_Cube.002_0",
            "target": 34963
        },
        {
            "buffer": 0,
            "byteLength": 12532,
            "byteOffset": 68328,
            "name": "bufferView_buffer_Cube.002_1",
            "target": 34963
        },
        {
            "buffer": 0,
            "byteLength": 5620,
            "byteOffset": 80860,
            "name": "bufferView_buffer_Cube.002_2",
            "target": 34963
        },
        {
            "buffer": 0,
            "byteLength": 36,
            "byteOffset": 86480,
            "byteStride": 4,
            "name": "bufferView_buffer_ArmatureAction_time_0"
        },
        {
            "buffer": 0,
            "byteLength": 108,
            "byteOffset": 86516,
            "byteStride": 12,
            "name": "bufferView_buffer_Bone_ArmatureAction_0"
        },
        {
            "buffer": 0,
            "byteLength": 144,
            "byteOffset": 86624,
            "byteStride": 16,
            "name": "bufferView_buffer_Bone_ArmatureAction_1"
        },
        {
            "buffer": 0,
            "byteLength": 108,
            "byteOffset": 86768,
            "byteStride": 12,
            "name": "bufferView_buffer_Bone_ArmatureAction_2"
        },
        {
            "buffer": 0,
            "byteLength": 64,
            "byteOffset": 86876,
            "byteStride": 64,
            "name": "bufferView_buffer_IBM_Plane_skin_0"
        }
    ],
    "buffers": [
        {
            "byteLength": 86940,
            "name": "buffer_bee",
            "uri": "buffer_bee.bin"
        }
    ],
    "cameras": [
        {
            "name": "Camera",
            "perspective": {
                "aspectRatio": 1.703595982340029,
                "yfov": 0.5033799409866333,
                "zfar": 100.0,
                "znear": 0.10000000149011612
            },
            "type": "perspective"
        }
    ],
    "materials": [
        {
            "emissiveFactor": [
                0.0,
                0.0,
                0.0
            ],
            "name": "Material",
            "pbrMetallicRoughness": {
                "baseColorFactor": [
                    0.6317809820175171,
                    0.64000004529953,
                    0.08782944828271866,
                    1.0
                ],
                "metallicFactor": 0.0,
                "roughnessFactor": 1.0
            }
        },
        {
            "emissiveFactor": [
                0.0,
                0.0,
                0.0
            ],
            "name": "Material.001",
            "pbrMetallicRoughness": {
                "baseColorFactor": [
                    0.0,
                    0.0,
                    0.0,
                    1.0
                ],
                "metallicFactor": 0.0,
                "roughnessFactor": 1.0
            }
        },
        {
            "emissiveFactor": [
                0.0,
                0.0,
                0.0
            ],
            "name": "Material.002",
            "pbrMetallicRoughness": {
                "baseColorFactor": [
                    0.07570052146911621,
                    0.05313218757510185,
                    0.006451569031924009,
                    1.0
                ],
                "metallicFactor": 0.0,
                "roughnessFactor": 1.0
            }
        },
        {
            "emissiveFactor": [
                0.0,
                0.0,
                0.0
            ],
            "name": "Material.003",
            "pbrMetallicRoughness": {
                "baseColorFactor": [
                    0.64000004529953,
                    0.64000004529953,
                    0.64000004529953,
                    0.2916666865348816
                ],
                "metallicFactor": 0.0,
                "roughnessFactor": 1.0
            }
        }
    ],
    "meshes": [
        {
            "name": "Plane.001",
            "primitives": [
                {
                    "attributes": {
                        "JOINTS_0": 0,
                        "NORMAL": 8,
                        "POSITION": 10,
                        "WEIGHTS_0": 4
                    },
                    "indices": 9,
                    "material": 3,
                    "mode": 4
                }
            ]
        },
        {
            "name": "Cube.002",
            "primitives": [
                {
                    "attributes": {
                        "NORMAL": 1,
                        "POSITION": 12
                    },
                    "indices": 2,
                    "material": 2,
                    "mode": 4
                },
                {
                    "attributes": {
                        "NORMAL": 1,
                        "POSITION": 12
                    },
                    "indices": 5,
                    "material": 0,
                    "mode": 4
                },
                {
                    "attributes": {
                        "NORMAL": 1,
                        "POSITION": 12
                    },
                    "indices": 7,
                    "material": 1,
                    "mode": 4
                }
            ]
        }
    ],
    "nodes": [
        {
            "children": [
                5,
                6
            ],
            "name": "Armature",
            "rotation": [
                0.04368600621819496,
                0.5361109375953674,
                0.02687312662601471,
                0.842587947845459
            ],
            "scale": [
                0.6423017978668213,
                0.6423018574714661,
                0.6423017978668213
            ],
            "translation": [
                0.027782103046774864,
                -0.157989963889122,
                -0.007223621942102909
            ]
        },
        {
            "mesh": 1,
            "name": "body",
            "rotation": [
                0.0,
                0.0,
                0.0,
                1.0
            ],
            "scale": [
                1.0,
                1.0,
                1.0
            ],
            "translation": [
                0.0,
                0.0,
                0.0
            ]
        },
        {
            "camera": 0,
            "name": "Camera",
            "rotation": [
                0.483536034822464,
                0.20870360732078552,
                0.33687159419059753,
                0.7804827094078064
            ],
            "scale": [
                1.0,
                1.0,
                1.0
            ],
            "translation": [
                7.481131553649902,
                -6.5076398849487305,
                5.34366512298584
            ]
        },
        {
            "name": "Hemi",
            "rotation": [
                0.0,
                0.0,
                0.0,
                1.0
            ],
            "scale": [
                1.0,
                1.0,
                1.0
            ],
            "translation": [
                0.0,
                0.0,
                6.681787490844727
            ]
        },
        {
            "name": "Lamp",
            "rotation": [
                0.16907575726509094,
                0.27217137813568115,
                0.7558802962303162,
                0.570947527885437
            ],
            "scale": [
                1.0,
                0.9999999403953552,
                1.0
            ],
            "translation": [
                4.076245307922363,
                1.0054539442062378,
                5.903861999511719
            ]
        },
        {
            "mesh": 0,
            "name": "Plane",
            "rotation": [
                0.564909040927887,
                -0.39808985590934753,
                0.36008551716804504,
                0.6266903281211853
            ],
            "scale": [
                0.527428925037384,
                0.527428925037384,
                0.527428925037384
            ],
            "skin": 0,
            "translation": [
                -0.030096039175987244,
                -0.016559496521949768,
                -0.03364552557468414
            ]
        },
        {
            "name": "Armature_Bone",
            "rotation": [
                0.7071068286895752,
                0.0,
                0.0,
                0.7071068286895752
            ],
            "scale": [
                1.0,
                1.0,
                1.0
            ],
            "translation": [
                0.0,
                0.0,
                0.0
            ]
        },
        {
            "children": [
                0,
                3,
                1,
                4,
                2
            ],
            "matrix": [
                -1.0,
                0.0,
                0.0,
                0.0,
                0.0,
                0.0,
                1.0,
                0.0,
                0.0,
                1.0,
                0.0,
                0.0,
                0.0,
                0.0,
                0.0,
                1.0
            ],
            "name": "Scene_root"
        }
    ],
    "scene": 0,
    "scenes": [
        {
            "extras": {
                "active_camera": 0,
                "background_color": [
                    0.05087608844041824,
                    0.05087608844041824,
                    0.05087608844041824
                ],
                "frames_per_second": 24
            },
            "name": "Scene",
            "nodes": [
                7
            ]
        }
    ],
    "skins": [
        {
            "inverseBindMatrices": 11,
            "joints": [
                6
            ],
            "name": "Plane",
            "skeleton": 6
        }
    ]
}
