{
    "accessors": [
        {
            "bufferView": 12,
            "byteOffset": 0,
            "componentType": 5126,
            "count": 10,
            "max": [
                1.0,
                1.0,
                1.0
            ],
            "min": [
                0.9999999403953552,
                0.9999999403953552,
                0.9999999403953552
            ],
            "name": "accessor_buffer_Bone_ArmatureAction_2",
            "type": "VEC3"
        },
        {
            "bufferView": 5,
            "byteOffset": 0,
            "componentType": 5126,
            "count": 960,
            "max": [
                0.6817740201950073,
                0.01951386220753193,
                0.3235475718975067
            ],
            "min": [
                0.04079591855406761,
                0.00048608705401420593,
                -0.02534184418618679
            ],
            "name": "accessor_buffer_Cube.005_POSITION_0",
            "type": "VEC3"
        },
        {
            "bufferView": 1,
            "byteOffset": 0,
            "componentType": 5126,
            "count": 2234,
            "max": [
                0.99993896484375,
                0.99993896484375,
                1.0
            ],
            "min": [
                -0.99993896484375,
                -0.99993896484375,
                -1.0
            ],
            "name": "accessor_buffer_Cube.004_NORMAL_0",
            "type": "VEC3"
        },
        {
            "bufferView": 7,
            "byteOffset": 0,
            "componentType": 5123,
            "count": 1440,
            "max": [
                959
            ],
            "min": [
                0
            ],
            "name": "accessor_buffer_Cube.005_0",
            "type": "SCALAR"
        },
        {
            "bufferView": 2,
            "byteOffset": 0,
            "componentType": 5123,
            "count": 3456,
            "max": [
                2233
            ],
            "min": [
                0
            ],
            "name": "accessor_buffer_Cube.004_0",
            "type": "SCALAR"
        },
        {
            "bufferView": 3,
            "byteOffset": 0,
            "componentType": 5123,
            "count": 7128,
            "max": [
                2232
            ],
            "min": [
                1
            ],
            "name": "accessor_buffer_Cube.004_1",
            "type": "SCALAR"
        },
        {
            "bufferView": 13,
            "byteOffset": 0,
            "componentType": 5126,
            "count": 1,
            "max": [
                0.5512086749076843,
                1.7592158317565918,
                -0.13129037618637085,
                0.0,
                -0.006006795912981033,
                -0.13567757606506348,
                -1.843220591545105,
                0.0,
                -1.7640973329544067,
                0.5501452684402466,
                -0.0347466841340065,
                0.0,
                -0.03250109776854515,
                -0.13433152437210083,
                0.09991231560707092,
                1.0
            ],
            "min": [
                0.5512086749076843,
                1.7592158317565918,
                -0.13129037618637085,
                0.0,
                -0.006006795912981033,
                -0.13567757606506348,
                -1.843220591545105,
                0.0,
                -1.7640973329544067,
                0.5501452684402466,
                -0.0347466841340065,
                0.0,
                -0.03250109776854515,
                -0.13433152437210083,
                0.09991231560707092,
                1.0
            ],
            "name": "accessor_buffer_IBM_Cube.001_skin_0",
            "type": "MAT4"
        },
        {
            "bufferView": 9,
            "byteOffset": 0,
            "componentType": 5126,
            "count": 10,
            "max": [
                0.375
            ],
            "min": [
                0
            ],
            "name": "accessor_buffer_ArmatureAction_time_0",
            "type": "SCALAR"
        },
        {
            "bufferView": 6,
            "byteOffset": 0,
            "componentType": 5126,
            "count": 960,
            "max": [
                0.2183060199022293,
                0.9999528527259827,
                0.397059828042984
            ],
            "min": [
                -0.32687175273895264,
                -0.9999529123306274,
                -0.5124043822288513
            ],
            "name": "accessor_buffer_Cube.005_NORMAL_0",
            "type": "VEC3"
        },
        {
            "bufferView": 4,
            "byteOffset": 0,
            "componentType": 5123,
            "count": 2808,
            "max": [
                2231
            ],
            "min": [
                3
            ],
            "name": "accessor_buffer_Cube.004_2",
            "type": "SCALAR"
        },
        {
            "bufferView": 8,
            "byteOffset": 16,
            "componentType": 5126,
            "count": 960,
            "max": [
                1.000000238418579,
                0.0,
                0.0,
                0.0
            ],
            "min": [
                0.9999998807907104,
                0.0,
                0.0,
                0.0
            ],
            "name": "accessor_buffer_Cube.005_skin_1",
            "type": "VEC4"
        },
        {
            "bufferView": 0,
            "byteOffset": 0,
            "componentType": 5126,
            "count": 2234,
            "max": [
                0.26351553201675415,
                0.26335155963897705,
                0.4332926869392395
            ],
            "min": [
                -0.2632492482662201,
                -0.26335155963897705,
                -0.8780129551887512
            ],
            "name": "accessor_buffer_Cube.004_POSITION_0",
            "type": "VEC3"
        },
        {
            "bufferView": 11,
            "byteOffset": 0,
            "componentType": 5126,
            "count": 10,
            "max": [
                0.8135635256767273,
                0.0,
                0.0,
                0.7071068286895752
            ],
            "min": [
                0.7071068286895752,
                -0.03885776922106743,
                -0.03424092009663582,
                0.5791651010513306
            ],
            "name": "accessor_buffer_Bone_ArmatureAction_1",
            "type": "VEC4"
        },
        {
            "bufferView": 10,
            "byteOffset": 0,
            "componentType": 5126,
            "count": 10,
            "max": [
                0.0,
                0.0,
                0.0
            ],
            "min": [
                0.0,
                0.0,
                0.0
            ],
            "name": "accessor_buffer_Bone_ArmatureAction_0",
            "type": "VEC3"
        },
        {
            "bufferView": 8,
            "byteOffset": 0,
            "componentType": 5121,
            "count": 960,
            "max": [
                0,
                0,
                0,
                0
            ],
            "min": [
                0,
                0,
                0,
                0
            ],
            "name": "accessor_buffer_Cube.005_skin_0",
            "type": "VEC4"
        }
    ],
    "animations": [
        {
            "channels": [
                {
                    "sampler": 0,
                    "target": {
                        "node": 5,
                        "path": "translation"
                    }
                },
                {
                    "sampler": 1,
                    "target": {
                        "node": 5,
                        "path": "rotation"
                    }
                },
                {
                    "sampler": 2,
                    "target": {
                        "node": 5,
                        "path": "scale"
                    }
                }
            ],
            "name": "ArmatureAction",
            "samplers": [
                {
                    "input": 7,
                    "interpolation": "LINEAR",
                    "output": 13
                },
                {
                    "input": 7,
                    "interpolation": "LINEAR",
                    "output": 12
                },
                {
                    "input": 7,
                    "interpolation": "LINEAR",
                    "output": 0
                }
            ]
        }
    ],
    "asset": {
        "version": "2.0"
    },
    "bufferViews": [
        {
            "buffer": 0,
            "byteLength": 26808,
            "byteOffset": 0,
            "byteStride": 12,
            "name": "bufferView_buffer_Cube.004_POSITION_0",
            "target": 34962
        },
        {
            "buffer": 0,
            "byteLength": 26808,
            "byteOffset": 26808,
            "byteStride": 12,
            "name": "bufferView_buffer_Cube.004_NORMAL_0",
            "target": 34962
        },
        {
            "buffer": 0,
            "byteLength": 6916,
            "byteOffset": 53616,
            "name": "bufferView_buffer_Cube.004_0",
            "target": 34963
        },
        {
            "buffer": 0,
            "byteLength": 14260,
            "byteOffset": 60532,
            "name": "bufferView_buffer_Cube.004_1",
            "target": 34963
        },
        {
            "buffer": 0,
            "byteLength": 5620,
            "byteOffset": 74792,
            "name": "bufferView_buffer_Cube.004_2",
            "target": 34963
        },
        {
            "buffer": 0,
            "byteLength": 11520,
            "byteOffset": 80412,
            "byteStride": 12,
            "name": "bufferView_buffer_Cube.005_POSITION_0",
            "target": 34962
        },
        {
            "buffer": 0,
            "byteLength": 11520,
            "byteOffset": 91932,
            "byteStride": 12,
            "name": "bufferView_buffer_Cube.005_NORMAL_0",
            "target": 34962
        },
        {
            "buffer": 0,
            "byteLength": 2884,
            "byteOffset": 103452,
            "name": "bufferView_buffer_Cube.005_0",
            "target": 34963
        },
        {
            "buffer": 0,
            "byteLength": 30720,
            "byteOffset": 106336,
            "byteStride": 32,
            "name": "bufferView_buffer_Cube.005_skin_0",
            "target": 34962
        },
        {
            "buffer": 0,
            "byteLength": 40,
            "byteOffset": 137056,
            "byteStride": 4,
            "name": "bufferView_buffer_ArmatureAction_time_0"
        },
        {
            "buffer": 0,
            "byteLength": 120,
            "byteOffset": 137096,
            "byteStride": 12,
            "name": "bufferView_buffer_Bone_ArmatureAction_0"
        },
        {
            "buffer": 0,
            "byteLength": 160,
            "byteOffset": 137216,
            "byteStride": 16,
            "name": "bufferView_buffer_Bone_ArmatureAction_1"
        },
        {
            "buffer": 0,
            "byteLength": 120,
            "byteOffset": 137376,
            "byteStride": 12,
            "name": "bufferView_buffer_Bone_ArmatureAction_2"
        },
        {
            "buffer": 0,
            "byteLength": 64,
            "byteOffset": 137496,
            "byteStride": 64,
            "name": "bufferView_buffer_IBM_Cube.001_skin_0"
        }
    ],
    "buffers": [
        {
            "byteLength": 137560,
            "name": "buffer_green",
            "uri": "buffer_green.bin"
        }
    ],
    "cameras": [
        {
            "name": "Camera",
            "perspective": {
                "aspectRatio": 1.703595982340029,
                "yfov": 0.5033799409866333,
                "zfar": 100.0,
                "znear": 0.10000000149011612
            },
            "type": "perspective"
        }
    ],
    "materials": [
        {
            "emissiveFactor": [
                0.0,
                0.0,
                0.0
            ],
            "name": "Material",
            "pbrMetallicRoughness": {
                "baseColorFactor": [
                    0.015016152523458004,
                    0.64000004529953,
                    0.0,
                    1.0
                ],
                "metallicFactor": 0.0,
                "roughnessFactor": 1.0
            }
        },
        {
            "emissiveFactor": [
                0.0,
                0.0,
                0.0
            ],
            "name": "Material.001",
            "pbrMetallicRoughness": {
                "baseColorFactor": [
                    0.0,
                    0.0,
                    0.0,
                    1.0
                ],
                "metallicFactor": 0.0,
                "roughnessFactor": 1.0
            }
        },
        {
            "emissiveFactor": [
                0.0,
                0.0,
                0.0
            ],
            "name": "Material.002",
            "pbrMetallicRoughness": {
                "baseColorFactor": [
                    0.16152067482471466,
                    0.12515577673912048,
                    0.030540376901626587,
                    1.0
                ],
                "metallicFactor": 0.0,
                "roughnessFactor": 1.0
            }
        },
        {
            "emissiveFactor": [
                0.0,
                0.0,
                0.0
            ],
            "name": "Material.003",
            "pbrMetallicRoughness": {
                "baseColorFactor": [
                    0.64000004529953,
                    0.64000004529953,
                    0.64000004529953,
                    0.5104166269302368
                ],
                "metallicFactor": 0.0,
                "roughnessFactor": 1.0
            }
        }
    ],
    "meshes": [
        {
            "name": "Cube.004",
            "primitives": [
                {
                    "attributes": {
                        "NORMAL": 2,
                        "POSITION": 11
                    },
                    "indices": 4,
                    "material": 2,
                    "mode": 4
                },
                {
                    "attributes": {
                        "NORMAL": 2,
                        "POSITION": 11
                    },
                    "indices": 5,
                    "material": 0,
                    "mode": 4
                },
                {
                    "attributes": {
                        "NORMAL": 2,
                        "POSITION": 11
                    },
                    "indices": 9,
                    "material": 1,
                    "mode": 4
                }
            ]
        },
        {
            "name": "Cube.005",
            "primitives": [
                {
                    "attributes": {
                        "JOINTS_0": 14,
                        "NORMAL": 8,
                        "POSITION": 1,
                        "WEIGHTS_0": 10
                    },
                    "indices": 3,
                    "material": 3,
                    "mode": 4
                }
            ]
        }
    ],
    "nodes": [
        {
            "children": [
                3,
                5
            ],
            "name": "Armature",
            "rotation": [
                0.028630614280700684,
                0.5919028520584106,
                -0.02306538261473179,
                0.8051703572273254
            ],
            "scale": [
                0.5410619378089905,
                0.5410619378089905,
                0.5410618185997009
            ],
            "translation": [
                0.07826632261276245,
                -0.16157254576683044,
                0.005866190418601036
            ]
        },
        {
            "camera": 0,
            "name": "Camera",
            "rotation": [
                0.483536034822464,
                0.20870360732078552,
                0.33687159419059753,
                0.7804827094078064
            ],
            "scale": [
                1.0,
                1.0,
                1.0
            ],
            "translation": [
                7.481131553649902,
                -6.5076398849487305,
                5.34366512298584
            ]
        },
        {
            "mesh": 0,
            "name": "Cube",
            "rotation": [
                0.0,
                0.0,
                0.0,
                1.0
            ],
            "scale": [
                1.0,
                1.0,
                1.0
            ],
            "translation": [
                0.0,
                0.0,
                0.0
            ]
        },
        {
            "mesh": 1,
            "name": "Cube.001",
            "rotation": [
                -0.028630614280700684,
                -0.5919028520584106,
                0.023065384477376938,
                0.8051703572273254
            ],
            "scale": [
                1.8482178449630737,
                1.8482171297073364,
                1.8482168912887573
            ],
            "skin": 0,
            "translation": [
                -0.03250110149383545,
                -0.09991231560707092,
                -0.13433153927326202
            ]
        },
        {
            "name": "Hemi",
            "rotation": [
                0.0,
                0.0,
                0.0,
                1.0
            ],
            "scale": [
                1.0,
                1.0,
                1.0
            ],
            "translation": [
                0.0,
                0.0,
                7.317087650299072
            ]
        },
        {
            "name": "Armature_Bone",
            "rotation": [
                0.7071068286895752,
                0.0,
                0.0,
                0.7071068286895752
            ],
            "scale": [
                1.0,
                1.0,
                1.0
            ],
            "translation": [
                0.0,
                0.0,
                0.0
            ]
        },
        {
            "children": [
                0,
                4,
                2,
                1
            ],
            "matrix": [
                -1.0,
                0.0,
                0.0,
                0.0,
                0.0,
                0.0,
                1.0,
                0.0,
                0.0,
                1.0,
                0.0,
                0.0,
                0.0,
                0.0,
                0.0,
                1.0
            ],
            "name": "Scene_root"
        }
    ],
    "scene": 0,
    "scenes": [
        {
            "extras": {
                "active_camera": 0,
                "background_color": [
                    0.05087608844041824,
                    0.05087608844041824,
                    0.05087608844041824
                ],
                "frames_per_second": 24
            },
            "name": "Scene",
            "nodes": [
                6
            ]
        }
    ],
    "skins": [
        {
            "inverseBindMatrices": 6,
            "joints": [
                5
            ],
            "name": "Cube.001",
            "skeleton": 5
        }
    ]
}
