{
    "accessors": [
        {
            "bufferView": 1,
            "byteOffset": 0,
            "componentType": 5126,
            "count": 2378,
            "max": [
                0.999969482421875,
                0.999969482421875,
                1.0
            ],
            "min": [
                -0.999969482421875,
                -0.999969482421875,
                -1.0
            ],
            "name": "accessor_buffer_Cube.002_NORMAL_0",
            "type": "VEC3"
        },
        {
            "bufferView": 6,
            "byteOffset": 0,
            "componentType": 5126,
            "count": 194,
            "max": [
                0.9986571669578552,
                0.999969482421875,
                0.9928891658782959
            ],
            "min": [
                -0.999725341796875,
                -0.999969482421875,
                -0.99993896484375
            ],
            "name": "accessor_buffer_Cube.003_NORMAL_0",
            "type": "VEC3"
        },
        {
            "bufferView": 7,
            "byteOffset": 0,
            "componentType": 5123,
            "count": 1152,
            "max": [
                193
            ],
            "min": [
                0
            ],
            "name": "accessor_buffer_Cube.003_0",
            "type": "SCALAR"
        },
        {
            "bufferView": 8,
            "byteOffset": 0,
            "componentType": 5121,
            "count": 194,
            "max": [
                0,
                0,
                0,
                0
            ],
            "min": [
                0,
                0,
                0,
                0
            ],
            "name": "accessor_buffer_Cube.003_skin_0",
            "type": "VEC4"
        },
        {
            "bufferView": 12,
            "byteOffset": 0,
            "componentType": 5126,
            "count": 10,
            "max": [
                1.0,
                1.0,
                1.0
            ],
            "min": [
                0.9999999403953552,
                0.9999999403953552,
                0.9999999403953552
            ],
            "name": "accessor_buffer_Bone_ArmatureAction_2",
            "type": "VEC3"
        },
        {
            "bufferView": 2,
            "byteOffset": 0,
            "componentType": 5123,
            "count": 3456,
            "max": [
                2368
            ],
            "min": [
                0
            ],
            "name": "accessor_buffer_Cube.002_0",
            "type": "SCALAR"
        },
        {
            "bufferView": 0,
            "byteOffset": 0,
            "componentType": 5126,
            "count": 2378,
            "max": [
                0.266177237033844,
                0.2660115957260132,
                0.43548229336738586
            ],
            "min": [
                -0.26590824127197266,
                -0.2660115957260132,
                -0.875823438167572
            ],
            "name": "accessor_buffer_Cube.002_POSITION_0",
            "type": "VEC3"
        },
        {
            "bufferView": 13,
            "byteOffset": 0,
            "componentType": 5126,
            "count": 1,
            "max": [
                0.3692115247249603,
                1.5953925848007202,
                -0.12942351400852203,
                0.0,
                0.1339855194091797,
                -0.1631605327129364,
                -1.6290398836135864,
                0.0,
                -1.5950162410736084,
                0.3555927574634552,
                -0.16680234670639038,
                0.0,
                -0.03698105365037918,
                -0.09946728497743607,
                0.1415778249502182,
                1.0
            ],
            "min": [
                0.3692115247249603,
                1.5953925848007202,
                -0.12942351400852203,
                0.0,
                0.1339855194091797,
                -0.1631605327129364,
                -1.6290398836135864,
                0.0,
                -1.5950162410736084,
                0.3555927574634552,
                -0.16680234670639038,
                0.0,
                -0.03698105365037918,
                -0.09946728497743607,
                0.1415778249502182,
                1.0
            ],
            "name": "accessor_buffer_IBM_wing1_skin_0",
            "type": "MAT4"
        },
        {
            "bufferView": 4,
            "byteOffset": 0,
            "componentType": 5123,
            "count": 7992,
            "max": [
                2377
            ],
            "min": [
                3
            ],
            "name": "accessor_buffer_Cube.002_2",
            "type": "SCALAR"
        },
        {
            "bufferView": 3,
            "byteOffset": 0,
            "componentType": 5123,
            "count": 2808,
            "max": [
                2370
            ],
            "min": [
                1
            ],
            "name": "accessor_buffer_Cube.002_1",
            "type": "SCALAR"
        },
        {
            "bufferView": 9,
            "byteOffset": 0,
            "componentType": 5126,
            "count": 10,
            "max": [
                0.375
            ],
            "min": [
                0
            ],
            "name": "accessor_buffer_ArmatureAction_time_0",
            "type": "SCALAR"
        },
        {
            "bufferView": 10,
            "byteOffset": 0,
            "componentType": 5126,
            "count": 10,
            "max": [
                0.0,
                0.0,
                0.0
            ],
            "min": [
                0.0,
                0.0,
                0.0
            ],
            "name": "accessor_buffer_Bone_ArmatureAction_0",
            "type": "VEC3"
        },
        {
            "bufferView": 8,
            "byteOffset": 16,
            "componentType": 5126,
            "count": 194,
            "max": [
                1.0,
                0.0,
                0.0,
                0.0
            ],
            "min": [
                0.9999997615814209,
                0.0,
                0.0,
                0.0
            ],
            "name": "accessor_buffer_Cube.003_skin_1",
            "type": "VEC4"
        },
        {
            "bufferView": 11,
            "byteOffset": 0,
            "componentType": 5126,
            "count": 10,
            "max": [
                0.8761681914329529,
                0.0,
                0.0,
                0.7071068286895752
            ],
            "min": [
                0.7071068286895752,
                -0.06537260115146637,
                -0.023625239729881287,
                0.47696706652641296
            ],
            "name": "accessor_buffer_Bone_ArmatureAction_1",
            "type": "VEC4"
        },
        {
            "bufferView": 5,
            "byteOffset": 0,
            "componentType": 5126,
            "count": 194,
            "max": [
                0.6760280728340149,
                0.019392341375350952,
                0.32709434628486633
            ],
            "min": [
                0.02854301407933235,
                0.000607609748840332,
                -0.022244896739721298
            ],
            "name": "accessor_buffer_Cube.003_POSITION_0",
            "type": "VEC3"
        }
    ],
    "animations": [
        {
            "channels": [
                {
                    "sampler": 0,
                    "target": {
                        "node": 5,
                        "path": "translation"
                    }
                },
                {
                    "sampler": 1,
                    "target": {
                        "node": 5,
                        "path": "rotation"
                    }
                },
                {
                    "sampler": 2,
                    "target": {
                        "node": 5,
                        "path": "scale"
                    }
                }
            ],
            "name": "ArmatureAction",
            "samplers": [
                {
                    "input": 10,
                    "interpolation": "LINEAR",
                    "output": 11
                },
                {
                    "input": 10,
                    "interpolation": "LINEAR",
                    "output": 13
                },
                {
                    "input": 10,
                    "interpolation": "LINEAR",
                    "output": 4
                }
            ]
        }
    ],
    "asset": {
        "version": "2.0"
    },
    "bufferViews": [
        {
            "buffer": 0,
            "byteLength": 28536,
            "byteOffset": 0,
            "byteStride": 12,
            "name": "bufferView_buffer_Cube.002_POSITION_0",
            "target": 34962
        },
        {
            "buffer": 0,
            "byteLength": 28536,
            "byteOffset": 28536,
            "byteStride": 12,
            "name": "bufferView_buffer_Cube.002_NORMAL_0",
            "target": 34962
        },
        {
            "buffer": 0,
            "byteLength": 6916,
            "byteOffset": 57072,
            "name": "bufferView_buffer_Cube.002_0",
            "target": 34963
        },
        {
            "buffer": 0,
            "byteLength": 5620,
            "byteOffset": 63988,
            "name": "bufferView_buffer_Cube.002_1",
            "target": 34963
        },
        {
            "buffer": 0,
            "byteLength": 15988,
            "byteOffset": 69608,
            "name": "bufferView_buffer_Cube.002_2",
            "target": 34963
        },
        {
            "buffer": 0,
            "byteLength": 2328,
            "byteOffset": 85596,
            "byteStride": 12,
            "name": "bufferView_buffer_Cube.003_POSITION_0",
            "target": 34962
        },
        {
            "buffer": 0,
            "byteLength": 2328,
            "byteOffset": 87924,
            "byteStride": 12,
            "name": "bufferView_buffer_Cube.003_NORMAL_0",
            "target": 34962
        },
        {
            "buffer": 0,
            "byteLength": 2308,
            "byteOffset": 90252,
            "name": "bufferView_buffer_Cube.003_0",
            "target": 34963
        },
        {
            "buffer": 0,
            "byteLength": 6208,
            "byteOffset": 92560,
            "byteStride": 32,
            "name": "bufferView_buffer_Cube.003_skin_0",
            "target": 34962
        },
        {
            "buffer": 0,
            "byteLength": 40,
            "byteOffset": 98768,
            "byteStride": 4,
            "name": "bufferView_buffer_ArmatureAction_time_0"
        },
        {
            "buffer": 0,
            "byteLength": 120,
            "byteOffset": 98808,
            "byteStride": 12,
            "name": "bufferView_buffer_Bone_ArmatureAction_0"
        },
        {
            "buffer": 0,
            "byteLength": 160,
            "byteOffset": 98928,
            "byteStride": 16,
            "name": "bufferView_buffer_Bone_ArmatureAction_1"
        },
        {
            "buffer": 0,
            "byteLength": 120,
            "byteOffset": 99088,
            "byteStride": 12,
            "name": "bufferView_buffer_Bone_ArmatureAction_2"
        },
        {
            "buffer": 0,
            "byteLength": 64,
            "byteOffset": 99208,
            "byteStride": 64,
            "name": "bufferView_buffer_IBM_wing1_skin_0"
        }
    ],
    "buffers": [
        {
            "byteLength": 99272,
            "name": "buffer_working",
            "uri": "buffer_working.bin"
        }
    ],
    "cameras": [
        {
            "name": "Camera",
            "perspective": {
                "aspectRatio": 1.703595982340029,
                "yfov": 0.5033799409866333,
                "zfar": 100.0,
                "znear": 0.10000000149011612
            },
            "type": "perspective"
        }
    ],
    "materials": [
        {
            "emissiveFactor": [
                0.0,
                0.0,
                0.0
            ],
            "name": "Material",
            "pbrMetallicRoughness": {
                "baseColorFactor": [
                    0.6233195662498474,
                    0.64000004529953,
                    0.13786903023719788,
                    1.0
                ],
                "metallicFactor": 0.0,
                "roughnessFactor": 1.0
            }
        },
        {
            "emissiveFactor": [
                0.0,
                0.0,
                0.0
            ],
            "name": "Material.001",
            "pbrMetallicRoughness": {
                "baseColorFactor": [
                    0.64000004529953,
                    0.64000004529953,
                    0.64000004529953,
                    0.25
                ],
                "metallicFactor": 0.0,
                "roughnessFactor": 1.0
            }
        },
        {
            "emissiveFactor": [
                0.0,
                0.0,
                0.0
            ],
            "name": "Material.002",
            "pbrMetallicRoughness": {
                "baseColorFactor": [
                    0.0,
                    0.0,
                    0.0,
                    1.0
                ],
                "metallicFactor": 0.0,
                "roughnessFactor": 1.0
            }
        },
        {
            "emissiveFactor": [
                0.0,
                0.0,
                0.0
            ],
            "name": "Material.003",
            "pbrMetallicRoughness": {
                "baseColorFactor": [
                    0.14308911561965942,
                    0.07422918826341629,
                    0.026789983734488487,
                    1.0
                ],
                "metallicFactor": 0.0,
                "roughnessFactor": 1.0
            }
        }
    ],
    "meshes": [
        {
            "name": "Cube.002",
            "primitives": [
                {
                    "attributes": {
                        "NORMAL": 0,
                        "POSITION": 6
                    },
                    "indices": 5,
                    "material": 3,
                    "mode": 4
                },
                {
                    "attributes": {
                        "NORMAL": 0,
                        "POSITION": 6
                    },
                    "indices": 9,
                    "material": 2,
                    "mode": 4
                },
                {
                    "attributes": {
                        "NORMAL": 0,
                        "POSITION": 6
                    },
                    "indices": 8,
                    "material": 0,
                    "mode": 4
                }
            ]
        },
        {
            "name": "Cube.003",
            "primitives": [
                {
                    "attributes": {
                        "JOINTS_0": 3,
                        "NORMAL": 1,
                        "POSITION": 14,
                        "WEIGHTS_0": 12
                    },
                    "indices": 2,
                    "material": 1,
                    "mode": 4
                }
            ]
        }
    ],
    "nodes": [
        {
            "children": [
                4,
                5
            ],
            "name": "Armature",
            "rotation": [
                0.06439028680324554,
                0.6225891709327698,
                0.0008902447880245745,
                0.7798947691917419
            ],
            "scale": [
                0.6087670922279358,
                0.6087672114372253,
                0.6087672114372253
            ],
            "translation": [
                0.07066060602664948,
                -0.11921153962612152,
                0.0
            ]
        },
        {
            "mesh": 0,
            "name": "body",
            "rotation": [
                0.0,
                0.0,
                0.0,
                1.0
            ],
            "scale": [
                1.0,
                1.0,
                1.0
            ],
            "translation": [
                0.0,
                0.0,
                0.0
            ]
        },
        {
            "camera": 0,
            "name": "Camera",
            "rotation": [
                0.483536034822464,
                0.20870360732078552,
                0.33687159419059753,
                0.7804827094078064
            ],
            "scale": [
                1.0,
                1.0,
                1.0
            ],
            "translation": [
                7.481131553649902,
                -6.5076398849487305,
                5.34366512298584
            ]
        },
        {
            "name": "Hemi",
            "rotation": [
                0.0,
                0.0,
                0.0,
                1.0
            ],
            "scale": [
                1.0,
                1.0,
                1.0
            ],
            "translation": [
                0.0,
                0.0,
                9.738178253173828
            ]
        },
        {
            "mesh": 1,
            "name": "wing1",
            "rotation": [
                -0.06439028680324554,
                -0.6225892305374146,
                -0.0008902472327463329,
                0.7798947095870972
            ],
            "scale": [
                1.6426639556884766,
                1.642663836479187,
                1.6426643133163452
            ],
            "skin": 0,
            "translation": [
                -0.03698105737566948,
                -0.1415778547525406,
                -0.09946728497743607
            ]
        },
        {
            "name": "Armature_Bone",
            "rotation": [
                0.7071068286895752,
                0.0,
                0.0,
                0.7071068286895752
            ],
            "scale": [
                1.0,
                1.0,
                1.0
            ],
            "translation": [
                0.0,
                0.0,
                0.0
            ]
        },
        {
            "children": [
                0,
                3,
                1,
                2
            ],
            "matrix": [
                -1.0,
                0.0,
                0.0,
                0.0,
                0.0,
                0.0,
                1.0,
                0.0,
                0.0,
                1.0,
                0.0,
                0.0,
                0.0,
                0.0,
                0.0,
                1.0
            ],
            "name": "Scene_root"
        }
    ],
    "scene": 0,
    "scenes": [
        {
            "extras": {
                "active_camera": 0,
                "background_color": [
                    0.05087608844041824,
                    0.05087608844041824,
                    0.05087608844041824
                ],
                "frames_per_second": 24
            },
            "name": "Scene",
            "nodes": [
                6
            ]
        }
    ],
    "skins": [
        {
            "inverseBindMatrices": 7,
            "joints": [
                5
            ],
            "name": "wing1",
            "skeleton": 5
        }
    ]
}
